<svg xmlns="http://www.w3.org/2000/svg" viewBox="0 0 1500 960" width="100%" height="100%">
  <defs>
    <!-- Grille technique blueprint -->
    <pattern id="gridBlueprint" width="20" height="20" patternUnits="userSpaceOnUse">
      <path d="M 20 0 L 0 0 0 20" fill="none" stroke="#2a324b" stroke-width="0.7"/>
    </pattern>
    <pattern id="gridFine" width="10" height="10" patternUnits="userSpaceOnUse">
      <path d="M 10 0 L 0 0 0 10" fill="none" stroke="#1e293b" stroke-width="0.4"/>
    </pattern>

    <!-- Dégradés métalliques Alu 7075-T6 -->
    <linearGradient id="gradAluPlein" x1="0%" y1="0%" x2="100%" y2="100%">
      <stop offset="0%" stop-color="#94a3b8"/>
      <stop offset="50%" stop-color="#64748b"/>
      <stop offset="100%" stop-color="#475569"/>
    </linearGradient>

    <linearGradient id="gradAluFestonne" x1="0%" y1="0%" x2="100%" y2="100%">
      <stop offset="0%" stop-color="#38bdf8"/>
      <stop offset="50%" stop-color="#0284c7"/>
      <stop offset="100%" stop-color="#0369a1"/>
    </linearGradient>

    <linearGradient id="gradAlesage" x1="0%" y1="0%" x2="100%" y2="100%">
      <stop offset="0%" stop-color="#0f172a"/>
      <stop offset="100%" stop-color="#1e293b"/>
    </linearGradient>

    <!-- Flèches de cotation -->
    <marker id="arrowDimSky" markerWidth="8" markerHeight="8" refX="4" refY="4" orient="auto">
      <path d="M 1 2 L 7 4 L 1 6 Z" fill="#38bdf8"/>
    </marker>
    <marker id="arrowRevSky" markerWidth="8" markerHeight="8" refX="4" refY="4" orient="auto-start-reverse">
      <path d="M 1 2 L 7 4 L 1 6 Z" fill="#38bdf8"/>
    </marker>
    <marker id="arrowDimYellow" markerWidth="8" markerHeight="8" refX="4" refY="4" orient="auto">
      <path d="M 1 2 L 7 4 L 1 6 Z" fill="#facc15"/>
    </marker>
    <marker id="arrowRevYellow" markerWidth="8" markerHeight="8" refX="4" refY="4" orient="auto-start-reverse">
      <path d="M 1 2 L 7 4 L 1 6 Z" fill="#facc15"/>
    </marker>
    <marker id="arrowDimGreen" markerWidth="8" markerHeight="8" refX="4" refY="4" orient="auto">
      <path d="M 1 2 L 7 4 L 1 6 Z" fill="#4ade80"/>
    </marker>
    <marker id="arrowRevGreen" markerWidth="8" markerHeight="8" refX="4" refY="4" orient="auto-start-reverse">
      <path d="M 1 2 L 7 4 L 1 6 Z" fill="#4ade80"/>
    </marker>

    <!-- Filtre ombre portée -->
    <filter id="shadowBox" x="-10%" y="-10%" width="120%" height="120%">
      <feDropShadow dx="0" dy="6" stdDeviation="6" flood-color="#000000" flood-opacity="0.5"/>
    </filter>
  </defs>

  <!-- FOND BLUEPRINT -->
  <rect width="1500" height="960" fill="#0f172a"/>
  <rect width="1500" height="960" fill="url(#gridBlueprint)"/>

  <!-- BANDEAU TITRE SUPÉRIEUR -->
  <g transform="translate(50, 25)">
    <rect width="1400" height="68" rx="8" fill="#1e293b" stroke="#334155" stroke-width="1.5" filter="url(#shadowBox)"/>
    <rect x="0" y="0" width="8" height="68" rx="4" fill="#38bdf8"/>
    <text x="30" y="32" font-family="system-ui, -apple-system, sans-serif" font-size="19" font-weight="bold" fill="#f8fafc" letter-spacing="0.5">
      CONTOURNAGE FESTONNÉ 2.5D — BRIDE D'ÉPAULE MONOBLOC ALU 7075-T6
    </text>
    <text x="30" y="54" font-family="system-ui, -apple-system, sans-serif" font-size="12" font-weight="500" fill="#94a3b8">
      Étude Géométrique &amp; Cotation Fusion 360 · Allègement de -64,6 g/bride (-129,2 g paire) · 10 Lobes R = 7,0 mm · Échancrures R = 25,64 mm · Garde saine 4,00 mm
    </text>
    <rect x="1200" y="18" width="180" height="32" rx="6" fill="#0284c7" fill-opacity="0.2" stroke="#38bdf8" stroke-width="1"/>
    <text x="1290" y="39" text-anchor="middle" font-family="system-ui, sans-serif" font-size="11" font-weight="bold" fill="#38bdf8">
      ACTION P3 (VALIDÉ V1)
    </text>
  </g>

  <!-- ======================================================================= -->
  <!-- PANEL 1 : FLASQUE ACTUEL (100% PLEIN Ø 120 mm — 266,9 g)               -->
  <!-- ======================================================================= -->
  <g transform="translate(50, 115)">
    <rect width="450" height="800" rx="10" fill="#1e293b" stroke="#64748b" stroke-width="1.5" filter="url(#shadowBox)"/>
    <rect width="450" height="800" rx="10" fill="url(#gridFine)" opacity="0.25"/>
    
    <!-- En-tête Panel 1 -->
    <rect x="0" y="0" width="450" height="42" rx="10" fill="#475569" opacity="0.2"/>
    <text x="225" y="26" text-anchor="middle" font-family="system-ui, sans-serif" font-size="13" font-weight="bold" fill="#94a3b8">
      PANEL 1 : FLASQUE INITIAL (100% PLEIN Ø 120 mm — 266,9 g)
    </text>

    <!-- Dessin Bride Pleine (Échelle 1 mm = 2.6 px, Ø 120 mm = 312 px -> r = 156 px) -->
    <g transform="translate(225, 300)">
      <!-- Axes principaux -->
      <line x1="-185" y1="0" x2="185" y2="0" stroke="#64748b" stroke-width="1" stroke-dasharray="6,4"/>
      <line x1="0" y1="-185" x2="0" y2="185" stroke="#64748b" stroke-width="1" stroke-dasharray="6,4"/>

      <!-- Cercle extérieur Ø 120 mm -->
      <circle cx="0" cy="0" r="156" fill="url(#gradAluPlein)" stroke="#cbd5e1" stroke-width="2"/>

      <!-- Alésage central Ø 97,00 mm H7 (r = 126.1 px) -->
      <circle cx="0" cy="0" r="126.1" fill="url(#gradAlesage)" stroke="#38bdf8" stroke-width="1.5"/>

      <!-- Cercle primitif PCD Ø 106,0 mm (r = 137.8 px) -->
      <circle cx="0" cy="0" r="137.8" fill="none" stroke="#facc15" stroke-width="1.2" stroke-dasharray="5,4"/>

      <!-- 10 trous M4 (Ø 4,3 mm -> r = 5.6 px) tous les 36° -->
      <g fill="#0f172a" stroke="#ffffff" stroke-width="1.4">
        <circle cx="0" cy="-137.8" r="5.6"/>
        <circle cx="81.0" cy="-111.5" r="5.6"/>
        <circle cx="131.1" cy="-42.6" r="5.6"/>
        <circle cx="131.1" cy="42.6" r="5.6"/>
        <circle cx="81.0" cy="111.5" r="5.6"/>
        <circle cx="0" cy="137.8" r="5.6"/>
        <circle cx="-81.0" cy="111.5" r="5.6"/>
        <circle cx="-131.1" cy="42.6" r="5.6"/>
        <circle cx="-131.1" cy="-42.6" r="5.6"/>
        <circle cx="-81.0" cy="-111.5" r="5.6"/>
      </g>

      <!-- Cotation Ø 120 mm extérieur -->
      <line x1="-156" y1="180" x2="156" y2="180" stroke="#cbd5e1" stroke-width="1.2" marker-start="url(#arrowRevSky)" marker-end="url(#arrowDimSky)"/>
      <text x="0" y="198" text-anchor="middle" font-family="system-ui, sans-serif" font-size="11" font-weight="bold" fill="#cbd5e1">
        Ø 120,00 mm Extérieur Plein
      </text>

      <!-- Annotation Alésage Ø 97 mm -->
      <text x="0" y="-8" text-anchor="middle" font-family="system-ui, sans-serif" font-size="11" font-weight="bold" fill="#38bdf8">
        Alésage Pilote
      </text>
      <text x="0" y="10" text-anchor="middle" font-family="system-ui, sans-serif" font-size="10" fill="#bae6fd">
        Ø 97,00 mm H7
      </text>

      <!-- PCD Annotation -->
      <text x="0" y="125" text-anchor="middle" font-family="system-ui, sans-serif" font-size="9.5" font-weight="bold" fill="#facc15">
        PCD Ø 106,00 mm (10× M4)
      </text>
    </g>

    <!-- Cartouche Bilan Masse V2 Actuel -->
    <g transform="translate(25, 540)">
      <rect width="400" height="230" rx="8" fill="#0f172a" stroke="#475569" stroke-width="1.2"/>
      <text x="200" y="28" text-anchor="middle" font-family="system-ui, sans-serif" font-size="12" font-weight="bold" fill="#f8fafc">
        CARACTÉRISTIQUES DU FLASQUE PLEIN
      </text>
      <line x1="20" y1="40" x2="380" y2="40" stroke="#334155" stroke-width="1"/>
      
      <text x="25" y="65" font-family="system-ui, sans-serif" font-size="10" fill="#94a3b8">• Géométrie : Couronne circulaire pleine Ø 120 mm</text>
      <text x="25" y="85" font-family="system-ui, sans-serif" font-size="10" fill="#94a3b8">• Épaisseur axiale : 5,0 mm (flasque) à 18,2 mm (hub)</text>
      <text x="25" y="105" font-family="system-ui, sans-serif" font-size="10" fill="#facc15">• Masse totale bride pleine : <tspan font-weight="bold">266,9 g</tspan></text>
      <text x="25" y="125" font-family="system-ui, sans-serif" font-size="10" fill="#94a3b8">• Masse de la paire d'épaules : <tspan font-weight="bold">533,8 g</tspan></text>
      <text x="25" y="145" font-family="system-ui, sans-serif" font-size="10" fill="#4ade80">• Facteur de sécurité chute : Sf = ×21,0 ✅ (Surdimensionné)</text>
      <text x="25" y="165" font-family="system-ui, sans-serif" font-size="10" fill="#4ade80">• Facteur de sécurité marche : Sf = ×60,0 ✅ (Infini)</text>
      <line x1="20" y1="180" x2="380" y2="180" stroke="#334155" stroke-width="0.8"/>
      <text x="200" y="205" text-anchor="middle" font-family="system-ui, sans-serif" font-size="10.5" font-weight="bold" fill="#38bdf8">
        Structure ultra-robuste mais avec ~52 g de matière superflue
      </text>
    </g>
  </g>

  <!-- ======================================================================= -->
  <!-- PANEL 2 : CONTOURNAGE FESTONNÉ 2.5D DÉTAILLÉ AVEC TOUTES LES COTES      -->
  <!-- ======================================================================= -->
  <g transform="translate(530, 115)">
    <rect width="920" height="520" rx="10" fill="#1e293b" stroke="#38bdf8" stroke-width="1.5" filter="url(#shadowBox)"/>
    <rect width="920" height="520" rx="10" fill="url(#gridFine)" opacity="0.25"/>

    <!-- En-tête Panel 2 -->
    <rect x="0" y="0" width="920" height="42" rx="10" fill="#0284c7" opacity="0.2"/>
    <text x="460" y="26" text-anchor="middle" font-family="system-ui, sans-serif" font-size="13" font-weight="bold" fill="#38bdf8">
      PANEL 2 : PLAN COTÉ DU FLASQUE FESTONNÉ &amp; ÉVIDÉ (10 LOBES R = 7 mm &amp; ÉCHANCRURES R = 25,64 mm — 202,3 g)
    </text>

    <!-- Groupe Zoom Cotation (Échelle 1 mm = 3.0 px, Ø 120 mm = 360 px -> r = 180 px) -->
    <g transform="translate(320, 280)">
      <!-- Axes principaux -->
      <line x1="-210" y1="0" x2="210" y2="0" stroke="#64748b" stroke-width="1" stroke-dasharray="6,4"/>
      <line x1="0" y1="-210" x2="0" y2="210" stroke="#64748b" stroke-width="1" stroke-dasharray="6,4"/>

      <!-- Fantôme cercle brut Ø 120 mm -->
      <circle cx="0" cy="0" r="180" fill="none" stroke="#475569" stroke-width="1" stroke-dasharray="4,4"/>

      <!-- Alésage central Ø 97,00 mm H7 (r = 145.5 px) -->
      <circle cx="0" cy="0" r="145.5" fill="url(#gradAlesage)" stroke="#38bdf8" stroke-width="1.5"/>

      <!-- PCD Ø 106,0 mm (r = 159.0 px) -->
      <circle cx="0" cy="0" r="159.0" fill="none" stroke="#facc15" stroke-width="1.2" stroke-dasharray="5,4"/>

      <!-- TRACÉ DU CONTOURNAGE FESTONNÉ 10 LOBES (R=25.64mm, fond à r=157.5 px = 52.5 mm, garde 4.0 mm) -->
      <path d="
        M 0,-180
        A 21 21 0 0 1 18.5,-168.5
        A 76.9 76.9 0 0 0 74.0,-146.0
        A 21 21 0 0 1 105.8,-145.6
        A 76.9 76.9 0 0 0 148.2,-79.8
        A 21 21 0 0 1 171.2,-55.6
        A 76.9 76.9 0 0 0 168.0,18.0
        A 21 21 0 0 1 171.2,55.6
        A 76.9 76.9 0 0 0 148.2,79.8
        A 21 21 0 0 1 105.8,145.6
        A 76.9 76.9 0 0 0 74.0,146.0
        A 21 21 0 0 1 18.5,168.5
        A 76.9 76.9 0 0 0 0,180
        A 21 21 0 0 1 -18.5,168.5
        A 76.9 76.9 0 0 0 -74.0,146.0
        A 21 21 0 0 1 -105.8,145.6
        A 76.9 76.9 0 0 0 -148.2,79.8
        A 21 21 0 0 1 -171.2,55.6
        A 76.9 76.9 0 0 0 -168.0,-18.0
        A 21 21 0 0 1 -171.2,-55.6
        A 76.9 76.9 0 0 0 -148.2,-79.8
        A 21 21 0 0 1 -105.8,-145.6
        A 76.9 76.9 0 0 0 -74.0,-146.0
        A 21 21 0 0 1 -18.5,-168.5
        Z
      " fill="url(#gradAluFestonne)" stroke="#38bdf8" stroke-width="2.5" fill-opacity="0.8"/>

      <!-- 10 Alésages de vis M4 (Ø 4,3 mm -> r = 6.45 px) sur PCD R = 159 px -->
      <g fill="#0f172a" stroke="#ffffff" stroke-width="1.8">
        <circle cx="0" cy="-159" r="6.45"/>
        <circle cx="93.4" cy="-128.6" r="6.45"/>
        <circle cx="151.2" cy="-49.1" r="6.45"/>
        <circle cx="151.2" cy="49.1" r="6.45"/>
        <circle cx="93.4" cy="128.6" r="6.45"/>
        <circle cx="0" cy="159" r="6.45"/>
        <circle cx="-93.4" cy="128.6" r="6.45"/>
        <circle cx="-151.2" cy="49.1" r="6.45"/>
        <circle cx="-151.2" cy="-49.1" r="6.45"/>
        <circle cx="-93.4" cy="-128.6" r="6.45"/>
      </g>

      <!-- Rayon des Bossages R = 7,0 mm (Flèche de cotation sur Lobe Supérieur) -->
      <circle cx="0" cy="-159" r="21" fill="none" stroke="#4ade80" stroke-width="1.2" stroke-dasharray="3,2"/>
      <line x1="0" y1="-180" x2="-45" y2="-215" stroke="#4ade80" stroke-width="1.2"/>
      <text x="-50" y="-220" text-anchor="end" font-family="system-ui, sans-serif" font-size="10.5" font-weight="bold" fill="#4ade80">
        Lobe Extérieur R = 7,0 mm
      </text>
      <text x="-50" y="-208" text-anchor="end" font-family="system-ui, sans-serif" font-size="9" fill="#86efac">
        (Ø 14 mm autour de chaque M4)
      </text>

      <!-- Rayon de l'Échancrure Concave R = 25,64 mm -->
      <circle cx="49" cy="-154" r="4" fill="#ec4899"/>
      <line x1="49" y1="-154" x2="95" y2="-195" stroke="#ec4899" stroke-width="1.2"/>
      <text x="100" y="-200" text-anchor="start" font-family="system-ui, sans-serif" font-size="10.5" font-weight="bold" fill="#ec4899">
        Congé Concave R = 25,64 mm
      </text>
      <text x="100" y="-188" text-anchor="start" font-family="system-ui, sans-serif" font-size="9" fill="#f472b6">
        Fraise carbure Ø 6 mm DLC (doux, zéro vibration)
      </text>

      <!-- Diamètre au fond du feston Ø 105 mm (R = 157.5 px = 52.5 mm) -->
      <circle cx="0" cy="0" r="157.5" fill="none" stroke="#facc15" stroke-width="1" stroke-dasharray="4,3"/>
      <line x1="0" y1="0" x2="111" y2="111" stroke="#facc15" stroke-width="1.2"/>
      <text x="118" y="115" font-family="system-ui, sans-serif" font-size="10" font-weight="bold" fill="#facc15">
        Ø 105,0 mm au fond du creux
      </text>
      <text x="118" y="127" font-family="system-ui, sans-serif" font-size="8.5" fill="#fef08a">
        (Garde saine continue = 4,00 mm sur alésage Ø 97 mm)
      </text>

      <!-- Entraxe Angulaire 36° entre vis -->
      <line x1="0" y1="0" x2="0" y2="-159" stroke="#64748b" stroke-width="1"/>
      <line x1="0" y1="0" x2="93.4" y2="-128.6" stroke="#64748b" stroke-width="1"/>
      <path d="M 0,-60 A 60 60 0 0 1 35.3,-48.5" fill="none" stroke="#38bdf8" stroke-width="1.5"/>
      <text x="18" y="-70" text-anchor="middle" font-family="system-ui, sans-serif" font-size="10" font-weight="bold" fill="#38bdf8">
        36,0°
      </text>
    </g>

    <!-- Fiche Technique Droite (Paramètres Fusion 360) -->
    <g transform="translate(630, 60)">
      <rect width="265" height="430" rx="8" fill="#0f172a" stroke="#334155" stroke-width="1.2"/>
      <text x="132" y="26" text-anchor="middle" font-family="system-ui, sans-serif" font-size="12" font-weight="bold" fill="#f8fafc">
        COTATION FUSION 360 V1
      </text>
      <line x1="15" y1="36" x2="250" y2="36" stroke="#1e293b" stroke-width="1"/>

      <!-- Bloc de paramètres -->
      <text x="15" y="58" font-family="system-ui, sans-serif" font-size="10" font-weight="bold" fill="#38bdf8">1. Cercle Primitif (PCD)</text>
      <text x="25" y="74" font-family="system-ui, sans-serif" font-size="9" fill="#cbd5e1">• Diamètre : <tspan font-weight="bold" fill="#ffffff">Ø 106,00 mm</tspan></text>
      <text x="25" y="88" font-family="system-ui, sans-serif" font-size="9" fill="#cbd5e1">• Entraxe angulaire : <tspan font-weight="bold" fill="#ffffff">36,00° (10 trous)</tspan></text>

      <text x="15" y="112" font-family="system-ui, sans-serif" font-size="10" font-weight="bold" fill="#4ade80">2. Lobes / Oreilles Vis M4</text>
      <text x="25" y="128" font-family="system-ui, sans-serif" font-size="9" fill="#cbd5e1">• Rayon bossage : <tspan font-weight="bold" fill="#ffffff">R = 7,00 mm</tspan></text>
      <text x="25" y="142" font-family="system-ui, sans-serif" font-size="9" fill="#cbd5e1">• Sommet lobe : <tspan font-weight="bold" fill="#ffffff">R = 60,0 mm (Ø 120 mm)</tspan></text>
      <text x="25" y="156" font-family="system-ui, sans-serif" font-size="9" fill="#cbd5e1">• Assise Nord-Lock : <tspan font-weight="bold" fill="#ffffff">Ø 7,6 mm (+0,7 mm garde)</tspan></text>

      <text x="15" y="180" font-family="system-ui, sans-serif" font-size="10" font-weight="bold" fill="#ec4899">3. Échancrures Concaves</text>
      <text x="25" y="196" font-family="system-ui, sans-serif" font-size="9" fill="#cbd5e1">• Rayon d'arc : <tspan font-weight="bold" fill="#ffffff">R = 25,64 mm</tspan> (tangent)</text>
      <text x="25" y="210" font-family="system-ui, sans-serif" font-size="9" fill="#cbd5e1">• Rayon fond creux : <tspan font-weight="bold" fill="#ffffff">R = 52,50 mm (Ø 105 mm)</tspan></text>
      <text x="25" y="224" font-family="system-ui, sans-serif" font-size="9" fill="#cbd5e1">• Garde saine résiduelle : <tspan font-weight="bold" fill="#ffffff">4,00 mm de métal</tspan></text>

      <text x="15" y="248" font-family="system-ui, sans-serif" font-size="10" font-weight="bold" fill="#facc15">4. Bilan Masse Réel CAO</text>
      <text x="25" y="264" font-family="system-ui, sans-serif" font-size="9" fill="#cbd5e1">• Volume : <tspan font-weight="bold" fill="#4ade80">71 993 mm³ Alu 7075</tspan></text>
      <text x="25" y="278" font-family="system-ui, sans-serif" font-size="9" fill="#cbd5e1">• Masse unitaire : <tspan font-weight="bold" fill="#4ade80">202,30 g (-64,60 g)</tspan></text>
      <text x="25" y="292" font-family="system-ui, sans-serif" font-size="9" fill="#cbd5e1">• Gain paire torse : <tspan font-weight="bold" fill="#4ade80">-129,20 g net ⭐</tspan></text>

      <!-- Cartouche RDM -->
      <rect x="15" y="315" width="235" height="95" rx="6" fill="#1e293b" stroke="#4ade80" stroke-width="1"/>
      <text x="132" y="335" text-anchor="middle" font-family="system-ui, sans-serif" font-size="10" font-weight="bold" fill="#4ade80">
        VALIDATION RDM (SF &gt; 15)
      </text>
      <text x="25" y="355" font-family="system-ui, sans-serif" font-size="8.5" fill="#e2e8f0">• Torsion RS-04 (120 N.m) : Sf = ×2,82 (Friction)</text>
      <text x="25" y="370" font-family="system-ui, sans-serif" font-size="8.5" fill="#e2e8f0">• Flexion choc (50 N.m) : Sf = ×15,2 ✅</text>
      <text x="25" y="385" font-family="system-ui, sans-serif" font-size="8.5" fill="#e2e8f0">• Rigidité collerette : +310% vs profil 2.5 mm</text>
    </g>
  </g>

  <!-- ======================================================================= -->
  <!-- PANEL 3 : GUIDE DE MODÉLISATION FUSION 360 & STRATÉGIE ATELIER C500    -->
  <!-- ======================================================================= -->
  <g transform="translate(530, 660)">
    <rect width="920" height="255" rx="10" fill="#1e293b" stroke="#4ade80" stroke-width="1.5" filter="url(#shadowBox)"/>
    
    <!-- En-tête Panel 3 -->
    <rect x="0" y="0" width="920" height="38" rx="10" fill="#16a34a" opacity="0.2"/>
    <text x="460" y="24" text-anchor="middle" font-family="system-ui, sans-serif" font-size="12.5" font-weight="bold" fill="#4ade80">
      PANEL 3 : GUIDE DE MODÉLISATION CAO FUSION 360 &amp; STRATÉGIE D'USINAGE ATELIER C500
    </text>

    <!-- 3 Cartouches d'instructions pas-à-pas -->
    <g transform="translate(25, 52)">
      <!-- Étape 1 -->
      <rect width="270" height="180" rx="6" fill="#0f172a" stroke="#334155" stroke-width="1"/>
      <rect x="12" y="12" width="26" height="26" rx="13" fill="#0284c7"/>
      <text x="25" y="29" text-anchor="middle" font-family="system-ui, sans-serif" font-size="12" font-weight="bold" fill="#ffffff">1</text>
      <text x="48" y="29" font-family="system-ui, sans-serif" font-size="11" font-weight="bold" fill="#38bdf8">Esquisse 2D d'un Motif</text>
      <text x="15" y="58" font-family="system-ui, sans-serif" font-size="9.5" fill="#cbd5e1">
        • Sur la face stator, tracer l'axe vertical θ = 0°.<br/>
        • Placer le trou M4 à <tspan font-weight="bold" fill="#facc15">Y = 53,0 mm</tspan>.<br/>
        • Tracer le cercle de bossage de <tspan font-weight="bold" fill="#4ade80">Ø 14,0 mm</tspan>.<br/>
        • Tracer le 2e trou M4 à θ = 36,0°.<br/>
        • Raccorder par l'arc tangent <tspan font-weight="bold" fill="#ec4899">R = 25,64 mm</tspan> tangent aux deux bossages (garde 4,00 mm).
      </text>

      <!-- Étape 2 -->
      <g transform="translate(295, 0)">
        <rect width="270" height="180" rx="6" fill="#0f172a" stroke="#334155" stroke-width="1"/>
        <rect x="12" y="12" width="26" height="26" rx="13" fill="#ca8a04"/>
        <text x="25" y="29" text-anchor="middle" font-family="system-ui, sans-serif" font-size="12" font-weight="bold" fill="#ffffff">2</text>
        <text x="48" y="29" font-family="system-ui, sans-serif" font-size="11" font-weight="bold" fill="#facc15">Répétition Circulaire ×10</text>
        <text x="15" y="58" font-family="system-ui, sans-serif" font-size="9.5" fill="#cbd5e1">
          • Outil <tspan fill="#facc15" font-weight="bold">Create &gt; Circular Pattern</tspan>.<br/>
          • Sélectionner le profil d'échancrure.<br/>
          • Axe : centre de l'alésage Ø 97 mm.<br/>
          • Quantité : <tspan font-weight="bold" fill="#38bdf8">10 occurrences sur 360°</tspan>.<br/>
          • L'esquisse génère la marguerite fermée à 10 festons.
        </text>
      </g>

      <!-- Étape 3 -->
      <g transform="translate(590, 0)">
        <rect width="280" height="180" rx="6" fill="#0f172a" stroke="#334155" stroke-width="1"/>
        <rect x="12" y="12" width="26" height="26" rx="13" fill="#16a34a"/>
        <text x="25" y="29" text-anchor="middle" font-family="system-ui, sans-serif" font-size="12" font-weight="bold" fill="#ffffff">3</text>
        <text x="48" y="29" font-family="system-ui, sans-serif" font-size="11" font-weight="bold" fill="#4ade80">Extrusion &amp; Usinage C500</text>
        <text x="15" y="58" font-family="system-ui, sans-serif" font-size="9.5" fill="#cbd5e1">
          • Extrusion négative découpant le pourtour.<br/>
          • Fraise carbure 3 lèvres <tspan font-weight="bold" fill="#ffffff">Ø 6 mm DLC</tspan>.<br/>
          • <tspan font-weight="bold" fill="#34d399">Contournage 2.5D continu sans reprise</tspan>.<br/>
          • Ébavurage conique <tspan font-weight="bold" fill="#facc15">0,3 mm × 45°</tspan> sur tout le profil festonné des deux côtés.
        </text>
      </g>
    </g>
  </g>
</svg>
